<?xml version="1.0" standalone="no"?>
<svg viewBox="0 0 200 200" xmlns="http://www.w3.org/2000/svg">
  <path fill="#FFC107" d="M33.3,-62.9C42.3,-52.6,47.9,-41.7,52.5,-31.2C57.1,-20.6,60.7,-10.3,64.4,2.2C68.1,14.6,72,29.2,67.9,40.7C63.8,52.2,51.8,60.5,39.2,69.8C26.5,79.1,13.3,89.3,2.3,85.4C-8.7,81.4,-17.4,63.4,-31.6,55C-45.8,46.6,-65.4,47.8,-75.2,40.3C-85.1,32.7,-85.1,16.4,-81,2.4C-76.8,-11.6,-68.5,-23.1,-59.3,-31.8C-50.1,-40.5,-40.1,-46.2,-30,-55.9C-20,-65.6,-10,-79.2,1.1,-81.1C12.2,-83,24.4,-73.2,33.3,-62.9Z" transform="translate(100 100)" />
</svg>
